<svg xmlns="http://www.w3.org/2000/svg" width="256" height="256" viewBox="547.086 547.086 1457.008 1457.008">
  <g fill="none" fill-rule="evenodd">
    <circle cx="1275.59" cy="1275.59" r="728.504" fill="#f5f5f5"/>
    <circle cx="1275.59" cy="1275.59" r="709" stroke="#0c1e3a" stroke-width="39"/>
    <path fill="#0c1e3a" d="M1856.189 1667.035c-22.256 32.943-47.454 64.136-75.021 92.91l-494.328-485.848 496.592-480.49c26.684 28.113 51.11 58.498 72.757 90.537 25.287 37.43 47.004 77.44 64.549 118.92 36.503 86.302 55.01 177.992 55.01 272.526 0 94.532-18.507 186.223-55.01 272.524-17.545 41.48-39.262 81.49-64.55 118.92m-308.073 253.703c-86.301 36.502-177.991 55.01-272.525 55.01-94.532 0-186.223-18.508-272.524-55.01-41.481-17.545-81.491-39.263-118.921-64.55a705.4 705.4 0 0 1-103.641-85.511c-1.127-1.128-2.243-2.27-3.363-3.405l493.397-477.4 494.68 486.197c-30.22 29.567-63.217 56.498-98.182 80.12-37.43 25.286-77.44 47.004-118.921 64.549m-917.672-372.623c-36.502-86.301-55.01-177.992-55.01-272.524 0-94.534 18.508-186.224 55.01-272.525 17.545-41.481 39.263-81.491 64.549-118.921 21.367-31.627 45.448-61.637 71.73-89.447l487.638 479.273-492.883 476.903c-24.246-26.223-46.547-54.327-66.485-83.838-25.286-37.43-47.004-77.44-64.55-118.921m372.624-917.672c86.3-36.502 177.99-55.01 272.524-55.01s186.224 18.508 272.525 55.01c41.48 17.545 81.492 39.262 118.92 64.549 35.87 24.233 69.662 51.955 100.517 82.425l-496.89 480.78-488.1-479.726c31.143-30.886 65.3-58.967 101.583-83.48 37.43-25.286 77.44-47.003 118.92-64.548m272.525-83.356c-402.341 0-728.504 326.162-728.504 728.504 0 402.34 326.163 728.504 728.504 728.504s728.505-326.163 728.505-728.504-326.163-728.504-728.505-728.504"/>
    <path fill="#199cf9" d="M1767.533 777.416c-30.855-30.47-64.647-58.192-100.518-82.425-37.428-25.287-77.44-47.004-118.92-64.549-86.301-36.502-177.992-55.01-272.525-55.01s-186.223 18.508-272.524 55.01c-41.481 17.545-81.492 39.262-118.921 64.55-36.282 24.511-70.44 52.592-101.582 83.477l488.098 479.727zM777.12 1767.271c1.12 1.136 2.236 2.276 3.364 3.404a705.4 705.4 0 0 0 103.64 85.513c37.43 25.286 77.44 47.004 118.922 64.55 86.3 36.501 177.992 55.01 272.524 55.01s186.223-18.509 272.524-55.01c41.482-17.546 81.492-39.264 118.92-64.55 34.967-23.622 67.963-50.554 98.185-80.12l-494.682-486.197z"/>
  </g>
</svg>
