<svg xmlns="http://www.w3.org/2000/svg" xmlns:xlink="http://www.w3.org/1999/xlink" width="256" height="256" viewBox="0 0 2552 2552">
  <defs>
    <path id="a" d="M0 0h2551.181v2551.181H0z"/>
  </defs>
  <g fill="none" fill-rule="evenodd">
    <mask id="c" fill="#f5f5f5">
      <use xlink:href="#a"/>
    </mask>
    <circle cx="1275.59" cy="1275.59" r="1247.244" fill="#f5f5f5"/>
    <path fill="#0c1e3a" d="M1275.59 0C571.101 0 0 571.101 0 1275.59c0 704.49 571.101 1275.591 1275.59 1275.591S2551.181 1980.08 2551.181 1275.59 1980.079 0 1275.59 0m0 28.346c84.643 0 169.224 8.526 251.394 25.34 80.067 16.384 158.824 40.832 234.082 72.663 73.898 31.256 145.174 69.944 211.85 114.99 66.051 44.622 128.162 95.869 184.609 152.316s107.694 118.559 152.317 184.609c45.045 66.676 83.733 137.953 114.989 211.851 31.832 75.258 56.279 154.015 72.663 234.082 16.815 82.17 25.34 166.751 25.34 251.393s-8.525 169.224-25.34 251.393c-16.384 80.067-40.831 158.824-72.663 234.082-31.256 73.898-69.944 145.176-114.989 211.852-44.623 66.049-95.869 128.161-152.317 184.608-56.447 56.447-118.558 107.694-184.609 152.316-66.676 45.046-137.952 83.734-211.85 114.991-75.258 31.831-154.015 56.279-234.082 72.663-82.17 16.814-166.751 25.339-251.394 25.339-84.642 0-169.223-8.525-251.393-25.339-80.067-16.384-158.824-40.832-234.082-72.663-73.898-31.257-145.175-69.945-211.851-114.991-66.05-44.622-128.161-95.869-184.609-152.316-56.447-56.447-107.693-118.559-152.316-184.608-45.045-66.676-83.733-137.954-114.99-211.852-31.831-75.258-56.279-154.015-72.663-234.082-16.814-82.169-25.34-166.751-25.34-251.393s8.526-169.223 25.34-251.393c16.384-80.067 40.832-158.824 72.663-234.082 31.257-73.898 69.945-145.175 114.99-211.851 44.623-66.05 95.869-128.161 152.316-184.609 56.448-56.447 118.559-107.694 184.609-152.316 66.676-45.046 137.953-83.734 211.851-114.99 75.258-31.831 154.015-56.279 234.082-72.663 82.17-16.814 166.751-25.34 251.393-25.34" mask="url(#c)"/>
    <path fill="#0c1e3a" d="M689.431 1221.219v-34.907q24.228-1.08 33.92-3.24 15.436-3.416 25.129-13.674 6.638-7.016 10.051-18.713 1.974-7.016 1.974-10.436h42.824v260.904h-52.541v-179.934zm300.849 46.423q17.452-11.156 17.454-38.686 0-22.131-10.347-35.087-10.349-12.955-28.34-12.955-13.136 0-22.491 7.377-14.755 11.518-14.755 39.046 0 23.211 9.447 34.817t29.059 11.606q10.615.001 19.973-6.118m-86.278-103.552q24.198-25.999 62.887-26 59.556 0 81.689 52.72 12.594 29.872 12.596 78.63-.001 47.326-12.056 78.992-23.033 60.28-84.568 60.278-29.331-.002-52.721-17.363-23.394-17.363-26.81-50.652h51.1q1.798 11.518 9.718 18.713 7.914 7.198 21.052 7.197 25.37 0 35.626-28.07 5.576-15.472 7.018-45.163-7.018 8.818-14.935 13.496-14.396 8.636-35.446 8.636-31.131.001-55.24-21.502-24.112-21.5-24.111-61.987 0-41.924 24.2-67.925m604.847 57.129v-34.907q24.229-1.08 33.92-3.24 15.438-3.416 25.129-13.674 6.64-7.016 10.052-18.713 1.973-7.016 1.973-10.436h42.824v260.904h-52.541v-179.934zm239.492 99.863q0 15.654 5.026 25.91 9.333 18.894 33.927 18.893 15.08.001 26.298-10.346 11.219-10.345 11.22-29.779 0-25.73-20.807-34.367-11.84-4.858-37.31-4.858v-36.707q24.923-.358 34.785-4.858 17.034-7.556 17.035-30.589 0-14.933-8.705-24.29t-24.496-9.357q-18.125.001-26.65 11.515-8.526 11.519-8.165 30.77h-47.86q.716-19.433 6.647-36.887 6.292-15.293 19.774-28.25 10.063-9.176 23.902-14.035 13.844-4.858 33.975-4.858 37.386.002 60.302 19.343 22.917 19.345 22.916 51.911-.001 23.034-13.674 38.865-8.638 9.899-17.994 13.495 7.016.002 20.153 12.056 19.611 18.176 19.613 49.662-.002 33.108-22.92 58.208t-67.857 25.101c-36.908 0-62.555-12.056-76.933-36.167q-11.327-19.25-12.584-50.38zM252.315 831.577l44.695 14.418-24.362 75.519 207.719 67.007-17.124 53.086-207.72-67.008-24.471 75.861-44.695-14.418zm167.471-194.201-71.76 117.253 48.036 29.399 65.749-107.431 39.289 24.046-65.749 107.43 58.166 35.599 75.142-122.778 40.67 24.89-103.413 168.974-226.219-138.449 100.032-163.448zm11.632-90.172 41.956-40.189 203.953 60.724-127.924-133.55 37.293-35.721 183.462 191.531-40.013 38.328L522 567.115l130.173 135.899-37.293 35.721zm224.589-198.715 51.134-27.583 180.458 112.777-87.8-162.761 45.45-24.517L971.168 479.83l-48.766 26.306-184.371-114.363 89.344 165.624-45.45 24.517zm384.595 115.025-52.369 17.002-81.901-252.259 52.369-17.003zm46.24-96.926q5.162 17.616 13.91 25.433 15.992 14.22 49.08 9.406 19.817-2.881 31.558-8.954 22.263-11.599 19.024-33.86-1.89-12.995-14.414-18.449-12.504-5.273-38.228-6.986l-29.32-2.098q-43.239-3.164-60.485-11.749-29.174-14.3-34.794-52.942-5.129-35.254 17.434-62.357 22.565-27.101 72.856-34.417 41.994-6.108 74.848 11.57 32.85 17.678 40.38 59.31l-52.706 7.667q-4.905-23.467-26.072-30.574-14.101-4.674-33.63-1.835-21.726 3.16-33.443 13.592-11.718 10.433-9.489 25.745 2.046 14.068 15.835 19.153 8.885 3.436 36.448 5.79l47.64 4.161q31.315 2.72 48.165 12.45 26.16 15.106 31.263 50.182 5.233 35.97-19.118 63.783-24.348 27.816-75.099 35.2-51.833 7.538-84.935-11.557-33.102-19.093-39.058-60.049zm361.511-189.199 57.287 5.793-116.65 254.778-52.092-5.268-62.553-272.901 58.897 5.957 37.027 206.117zm283.672 132.92-129.161-47.066-19.282 52.915 118.34 43.124-15.77 43.279-118.342-43.124-23.348 64.073 135.247 49.285-16.326 44.8-186.133-67.828 90.806-249.192 180.048 65.61zm110.824 63.751-40.753 58.45 48.924 34.111q14.576 10.164 24.337 11.705 17.218 2.794 29.98-15.509 13.788-19.779 6.048-35.267-4.335-8.724-18.35-18.498zm116.395 33.337q8.415 13.548 9.766 29.404a82.6 82.6 0 0 1-1.823 25.928q-2.968 12.848-11.92 25.69-10.807 15.496-29.074 25.023-18.27 9.526-40.598 3.171c7.223 11.034 10.334 21.72 9.339 32.066q-1.499 15.519-17.449 38.395l-10.189 14.612c-6.93 9.94-11.229 16.956-12.899 21.057q-4.068 9.667-.25 18.251l-3.808 5.461-50.183-34.99c1.981-5.782 3.71-10.355 5.178-13.719 3.073-6.923 6.787-13.617 11.151-20.082l13.804-20.427q14.23-21.005 12.157-32.762-2.077-11.756-21.062-24.995l-44.399-30.958-59.484 85.311-44.426-30.976 151.693-217.559 104.06 72.557q22 15.997 30.416 29.542m190.313 255.068-89.029-104.746-42.913 36.475 81.571 95.97-35.098 29.832-81.571-95.97-51.962 44.165 93.225 109.68-36.332 30.881-128.3-150.949 202.087-171.765L2185.34 632.05zm-133.31 205.687-28.135-47.329 227.982-135.525 28.134 47.328zm263.114-78.488 20.241 54.459-136.668 163.113 173.347-64.428 17.991 48.406-248.606 92.4-19.304-51.937 138.78-166.769-176.395 65.562-17.991-48.406zM475.68 1582.201l-118.077 104.333-33.881 27.154 40.477-13.161 150.168-47.017 28.191 51.962-119.746 101.21-33.687 27.559 40.064-12.319 153.444-42.583 27.201 50.139-271.639 61.558-25.582-47.154 122.38-103.231 41.057-33.035-50.078 16.407-153.261 46.312-24.812-45.735 199.417-194.681zm82.024 549.919-41.745-36.818 177.352-201.083 41.745 36.817zm278.831-121.675 53.775 23.62 22.26 213.971 75.185-171.168 47.797 20.994-107.826 245.482-51.285-22.526-23.428-218.075-76.507 174.18-47.797-20.996zm354.099 297.638q2.088 18.44 9.443 27.742 13.46 16.935 47.251 17.88 20.236.567 32.982-3.445 24.183-7.692 24.82-30.423.368-13.271-11.157-20.874-11.54-7.42-36.86-13.587l-28.839-7.175q-42.515-10.65-58.202-22.19-26.576-19.303-25.47-58.761c.671-24.001 10.06-43.692 28.177-59.08q27.172-23.078 78.528-21.643 42.884 1.2 72.537 24.5 29.65 23.307 29.93 66.075l-53.822-1.505q-.815-24.222-20.662-34.97c-8.824-4.733-19.882-7.29-33.177-7.66q-22.184-.621-35.664 7.737-13.48 8.356-13.915 23.995-.401 14.365 12.45 21.82 8.253 4.964 35.296 12.087l46.724 12.407c20.48 5.426 35.747 12.344 45.811 20.752q23.435 19.581 22.434 55.4-1.027 36.73-30.102 60.209-29.074 23.482-80.899 22.03-52.93-1.477-82.586-26.237-29.654-24.755-28.485-66.578zm482.845-222.574-130.725 47.16 19.321 53.556 119.774-43.209 15.802 43.803-119.774 43.209 23.395 64.849 136.884-49.382 16.358 45.343-188.388 67.962-90.985-252.21 182.228-65.739zm89.456-106.341 43.703-39.238 204.094 68.005-124.9-139.11 38.846-34.877 179.125 199.505-41.68 37.422-208.313-68.635 127.096 141.556-38.846 34.878zm288.18-346.706 18.205-52.984 207.982 71.466 43.506-126.61 45.587 15.665-61.714 179.595zm265.521-139.781 9.736-54.248 53.534 9.608-9.738 54.248z"/>
    <path fill="#0c1e3a" d="M1856.189 1667.035c-22.256 32.943-47.454 64.136-75.021 92.91l-494.328-485.848 496.592-480.49c26.684 28.113 51.11 58.498 72.757 90.537 25.287 37.43 47.004 77.44 64.549 118.92 36.503 86.302 55.01 177.992 55.01 272.526 0 94.532-18.507 186.223-55.01 272.524-17.545 41.48-39.262 81.49-64.55 118.92m-308.073 253.703c-86.301 36.502-177.991 55.01-272.525 55.01-94.532 0-186.223-18.508-272.524-55.01-41.481-17.545-81.491-39.263-118.921-64.55a705.4 705.4 0 0 1-103.641-85.511c-1.127-1.128-2.243-2.27-3.363-3.405l493.397-477.4 494.68 486.197c-30.22 29.567-63.217 56.498-98.182 80.12-37.43 25.286-77.44 47.004-118.921 64.549m-917.672-372.623c-36.502-86.301-55.01-177.992-55.01-272.524 0-94.534 18.508-186.224 55.01-272.525 17.545-41.481 39.263-81.491 64.549-118.921 21.367-31.627 45.448-61.637 71.73-89.447l487.638 479.273-492.883 476.903c-24.246-26.223-46.547-54.327-66.485-83.838-25.286-37.43-47.004-77.44-64.55-118.921m372.624-917.672c86.3-36.502 177.99-55.01 272.524-55.01s186.224 18.508 272.525 55.01c41.48 17.545 81.492 39.262 118.92 64.549 35.87 24.233 69.662 51.955 100.517 82.425l-496.89 480.78-488.1-479.726c31.143-30.886 65.3-58.967 101.583-83.48 37.43-25.286 77.44-47.003 118.92-64.548m272.525-83.356c-402.341 0-728.504 326.162-728.504 728.504 0 402.34 326.163 728.504 728.504 728.504s728.505-326.163 728.505-728.504-326.163-728.504-728.505-728.504"/>
    <path fill="#199cf9" d="M1767.533 777.416c-30.855-30.47-64.647-58.192-100.518-82.425-37.428-25.287-77.44-47.004-118.92-64.549-86.301-36.502-177.992-55.01-272.525-55.01s-186.223 18.508-272.524 55.01c-41.481 17.545-81.492 39.262-118.921 64.55-36.282 24.511-70.44 52.592-101.582 83.477l488.098 479.727zM777.12 1767.271c1.12 1.136 2.236 2.276 3.364 3.404a705.4 705.4 0 0 0 103.64 85.513c37.43 25.286 77.44 47.004 118.922 64.55 86.3 36.501 177.992 55.01 272.524 55.01s186.223-18.509 272.524-55.01c41.482-17.546 81.492-39.264 118.92-64.55 34.967-23.622 67.963-50.554 98.185-80.12l-494.682-486.197z"/>
  </g>
</svg>
